<?xml version="1.0" encoding="UTF-8"?>
<!DOCTYPE svg PUBLIC "-//W3C//DTD SVG 1.1//EN" "http://www.w3.org/Graphics/SVG/1.1/DTD/svg11.dtd">
<svg version="1.1" xmlns="http://www.w3.org/2000/svg" xmlns:xlink="http://www.w3.org/1999/xlink" x="0" y="0" width="280" height="270" viewBox="0, 0, 280, 270">
  <g id="Layer_1">
    <g>
      <path d="M140.5,2.781 L140.587,2.957 L140.587,2.957 L178.558,79.894 C173.405,81.763 170.439,86.285 170.167,91.667 C170.167,98.57 175.763,104.167 182.667,104.167 C189.611,104.052 194.814,98.659 195.158,91.834 L280.05,104.169 L219.139,163.542 C216.77,160.855 213.504,159.677 210,159.5 C203.096,159.5 197.5,165.097 197.5,172 C197.5,178.904 203.096,184.5 210,184.5 C211.639,184.417 210.86,184.521 212.339,184.219 L226.746,268.219 L152.351,229.107 C153.211,227.535 153.411,225.757 153.5,224 C153.5,217.097 147.904,211.5 141,211.5 C134.096,211.5 128.5,217.097 128.5,224 C128.471,225.62 128.841,227.195 129.467,228.677 L54.254,268.219 L68.661,184.219 C70.14,184.521 69.361,184.417 71,184.5 C77.904,184.5 83.5,178.904 83.5,172 C83.5,165.097 77.904,159.5 71,159.5 C67.402,159.479 64.348,161.055 61.861,163.542 L0.95,104.169 L85.506,91.882 L85.5,92 C85.5,98.904 91.096,104.5 98,104.5 C104.904,104.5 110.5,98.904 110.5,92 C110.452,86.541 107.132,82.349 102.249,80.287 L140.5,2.781 z M140.5,106 C118.685,106 101,123.685 101,145.5 C101,167.315 118.685,185 140.5,185 C162.315,185 180,167.315 180,145.5 C180,123.685 162.315,106 140.5,106 L140.5,106 L140.5,106 L140.5,106 L140.5,106 z" fill="#595959"/>
      <path d="M140.5,2.781 L140.587,2.957 L140.587,2.957 L178.558,79.894 C173.405,81.763 170.439,86.285 170.167,91.667 C170.167,98.57 175.763,104.167 182.667,104.167 C189.611,104.052 194.814,98.659 195.158,91.834 L280.05,104.169 L219.139,163.542 C216.77,160.855 213.504,159.677 210,159.5 C203.096,159.5 197.5,165.097 197.5,172 C197.5,178.904 203.096,184.5 210,184.5 C211.639,184.417 210.86,184.521 212.339,184.219 L226.746,268.219 L152.351,229.107 C153.211,227.535 153.411,225.757 153.5,224 C153.5,217.097 147.904,211.5 141,211.5 C134.096,211.5 128.5,217.097 128.5,224 C128.471,225.62 128.841,227.195 129.467,228.677 L54.254,268.219 L68.661,184.219 C70.14,184.521 69.361,184.417 71,184.5 C77.904,184.5 83.5,178.904 83.5,172 C83.5,165.097 77.904,159.5 71,159.5 C67.402,159.479 64.348,161.055 61.861,163.542 L0.95,104.169 L85.506,91.882 L85.5,92 C85.5,98.904 91.096,104.5 98,104.5 C104.904,104.5 110.5,98.904 110.5,92 C110.452,86.541 107.132,82.349 102.249,80.287 L140.5,2.781 z M140.5,106 C118.685,106 101,123.685 101,145.5 C101,167.315 118.685,185 140.5,185 C162.315,185 180,167.315 180,145.5 C180,123.685 162.315,106 140.5,106 L140.5,106 L140.5,106 L140.5,106 L140.5,106 z" fill-opacity="0" stroke="#333337" stroke-width="1"/>
    </g>
  </g>
  <g id="Layer_2" opacity="0.603">
    <path d="M140.5,2.781 L140.5,12.75" fill-opacity="0" stroke="#333337" stroke-width="1"/>
    <path d="M140.5,12.75 L105.5,82.25" fill-opacity="0" stroke="#333337" stroke-width="1"/>
    <path d="M140.5,12.75 L175.25,82.25" fill-opacity="0" stroke="#333337" stroke-width="1"/>
    <path d="M280.05,104.365 L270.567,107.444" fill-opacity="0" stroke="#333337" stroke-width="1"/>
    <path d="M270.567,107.444 L194.5,95.75" fill-opacity="0" stroke="#333337" stroke-width="1"/>
    <path d="M270.567,107.444 L216.25,161" fill-opacity="0" stroke="#333337" stroke-width="1"/>
    <path d="M0.95,104.185 L10.43,107.272" fill-opacity="0" stroke="#333337" stroke-width="1"/>
    <path d="M10.43,107.272 L65,161" fill-opacity="0" stroke="#333337" stroke-width="1"/>
    <path d="M10.43,107.272 L86,95.75" fill-opacity="0" stroke="#333337" stroke-width="1"/>
    <path d="M226.86,268.219 L221.005,260.15" fill-opacity="0" stroke="#333337" stroke-width="1"/>
    <path d="M221.005,260.15 L208.75,184.75" fill-opacity="0" stroke="#333337" stroke-width="1"/>
    <path d="M221.005,260.15 L153.5,225.25" fill-opacity="0" stroke="#333337" stroke-width="1"/>
    <path d="M54.149,268.219 L60.014,260.158" fill-opacity="0" stroke="#333337" stroke-width="1"/>
    <path d="M60.014,260.157 L128.25,225.25" fill-opacity="0" stroke="#333337" stroke-width="1"/>
    <path d="M60.014,260.157 L72.75,184.75" fill-opacity="0" stroke="#333337" stroke-width="1"/>
  </g>
</svg>
